solid BallscrewRouter
facet normal -1.0 -0.0 -0.0
  outer loop
    vertex 3660.826517465276 81.27038295660428 3.0000000000001807
    vertex 3660.826517465276 61.270382956604266 1.8047785488306544e-13
    vertex 3660.826517465276 61.270382956604266 3.0000000000001807
  endloop
endfacet
facet normal -1.0 -0.0 -0.0
  outer loop
    vertex 3660.826517465276 61.270382956604266 1.8047785488306544e-13
    vertex 3660.826517465276 81.27038295660428 3.0000000000001807
    vertex 3660.826517465276 81.27038295660428 1.8047785488306544e-13
  endloop
endfacet
facet normal 0.0 1.0 0.0
  outer loop
    vertex 2460.826517465276 61.270382956604266 3.0000000000001807
    vertex 3660.826517465276 61.270382956604266 1.8047785488306544e-13
    vertex 2460.826517465276 61.270382956604266 1.8047785488306544e-13
  endloop
endfacet
facet normal 0.0 1.0 0.0
  outer loop
    vertex 3660.826517465276 61.270382956604266 1.8047785488306544e-13
    vertex 2460.826517465276 61.270382956604266 3.0000000000001807
    vertex 3660.826517465276 61.270382956604266 3.0000000000001807
  endloop
endfacet
facet normal 0.0 0.0 -1.0
  outer loop
    vertex 3660.826517465276 81.27038295660428 3.0000000000001807
    vertex 2460.826517465276 61.270382956604266 3.0000000000001807
    vertex 2460.826517465276 81.27038295660428 3.0000000000001807
  endloop
endfacet
facet normal 0.0 0.0 -1.0
  outer loop
    vertex 2460.826517465276 61.270382956604266 3.0000000000001807
    vertex 3660.826517465276 81.27038295660428 3.0000000000001807
    vertex 3660.826517465276 61.270382956604266 3.0000000000001807
  endloop
endfacet
facet normal 0.0 -1.0 0.0
  outer loop
    vertex 3660.826517465276 203.17038295660424 3.0000000000001807
    vertex 2460.826517465276 203.17038295660424 1.8047785488306544e-13
    vertex 3660.826517465276 203.17038295660424 1.8047785488306544e-13
  endloop
endfacet
facet normal 0.0 -1.0 0.0
  outer loop
    vertex 2460.826517465276 203.17038295660424 1.8047785488306544e-13
    vertex 3660.826517465276 203.17038295660424 3.0000000000001807
    vertex 2460.826517465276 203.17038295660424 3.0000000000001807
  endloop
endfacet
facet normal 1.0 0.0 0.0
  outer loop
    vertex 2460.826517465276 203.17038295660424 1.8047785488306544e-13
    vertex 2460.826517465276 106.67038295660427 3.0000000000001807
    vertex 2460.826517465276 106.67038295660427 1.8047785488306544e-13
  endloop
endfacet
facet normal 1.0 0.0 0.0
  outer loop
    vertex 2460.826517465276 106.67038295660427 3.0000000000001807
    vertex 2460.826517465276 203.17038295660424 1.8047785488306544e-13
    vertex 2460.826517465276 203.17038295660424 3.0000000000001807
  endloop
endfacet
facet normal 1.0 0.0 0.0
  outer loop
    vertex 2460.826517465276 23.17038295660426 1.8047785488306544e-13
    vertex 2460.826517465276 3.1703829566042585 3.0000000000001807
    vertex 2460.826517465276 3.1703829566042585 1.8047785488306544e-13
  endloop
endfacet
facet normal 1.0 0.0 0.0
  outer loop
    vertex 2460.826517465276 3.1703829566042585 3.0000000000001807
    vertex 2460.826517465276 23.17038295660426 1.8047785488306544e-13
    vertex 2460.826517465276 23.17038295660426 3.0000000000001807
  endloop
endfacet
facet normal 0.0 0.0 -1.0
  outer loop
    vertex 3660.826517465276 203.17038295660424 3.0000000000001807
    vertex 2460.826517465276 106.67038295660427 3.0000000000001807
    vertex 2460.826517465276 203.17038295660424 3.0000000000001807
  endloop
endfacet
facet normal 0.0 0.0 -1.0
  outer loop
    vertex 2460.826517465276 106.67038295660427 3.0000000000001807
    vertex 3660.826517465276 203.17038295660424 3.0000000000001807
    vertex 3660.826517465276 106.67038295660427 3.0000000000001807
  endloop
endfacet
facet normal 0.0 -1.0 0.0
  outer loop
    vertex 3660.826517465276 23.17038295660426 3.0000000000001807
    vertex 2460.826517465276 23.17038295660426 1.8047785488306544e-13
    vertex 3660.826517465276 23.17038295660426 1.8047785488306544e-13
  endloop
endfacet
facet normal 0.0 -1.0 0.0
  outer loop
    vertex 2460.826517465276 23.17038295660426 1.8047785488306544e-13
    vertex 3660.826517465276 23.17038295660426 3.0000000000001807
    vertex 2460.826517465276 23.17038295660426 3.0000000000001807
  endloop
endfacet
facet normal -1.0 -0.0 -0.0
  outer loop
    vertex 3660.826517465276 23.17038295660426 3.0000000000001807
    vertex 3660.826517465276 3.1703829566042585 1.8047785488306544e-13
    vertex 3660.826517465276 3.1703829566042585 3.0000000000001807
  endloop
endfacet
facet normal -1.0 -0.0 -0.0
  outer loop
    vertex 3660.826517465276 3.1703829566042585 1.8047785488306544e-13
    vertex 3660.826517465276 23.17038295660426 3.0000000000001807
    vertex 3660.826517465276 23.17038295660426 1.8047785488306544e-13
  endloop
endfacet
facet normal 0.0 0.0 -1.0
  outer loop
    vertex 3660.826517465276 23.17038295660426 3.0000000000001807
    vertex 2460.826517465276 3.1703829566042585 3.0000000000001807
    vertex 2460.826517465276 23.17038295660426 3.0000000000001807
  endloop
endfacet
facet normal 0.0 0.0 -1.0
  outer loop
    vertex 2460.826517465276 3.1703829566042585 3.0000000000001807
    vertex 3660.826517465276 23.17038295660426 3.0000000000001807
    vertex 3660.826517465276 3.1703829566042585 3.0000000000001807
  endloop
endfacet
facet normal -1.0 -0.0 -0.0
  outer loop
    vertex 3660.826517465276 203.17038295660424 3.0000000000001807
    vertex 3660.826517465276 106.67038295660427 1.8047785488306544e-13
    vertex 3660.826517465276 106.67038295660427 3.0000000000001807
  endloop
endfacet
facet normal -1.0 -0.0 -0.0
  outer loop
    vertex 3660.826517465276 106.67038295660427 1.8047785488306544e-13
    vertex 3660.826517465276 203.17038295660424 3.0000000000001807
    vertex 3660.826517465276 203.17038295660424 1.8047785488306544e-13
  endloop
endfacet
facet normal 0.0 1.0 0.0
  outer loop
    vertex 2460.826517465276 106.67038295660427 3.0000000000001807
    vertex 3660.826517465276 106.67038295660427 1.8047785488306544e-13
    vertex 2460.826517465276 106.67038295660427 1.8047785488306544e-13
  endloop
endfacet
facet normal 0.0 1.0 0.0
  outer loop
    vertex 3660.826517465276 106.67038295660427 1.8047785488306544e-13
    vertex 2460.826517465276 106.67038295660427 3.0000000000001807
    vertex 3660.826517465276 106.67038295660427 3.0000000000001807
  endloop
endfacet
facet normal 0.0 1.0 0.0
  outer loop
    vertex 2460.826517465276 3.1703829566042585 3.0000000000001807
    vertex 3660.826517465276 3.1703829566042585 1.8047785488306544e-13
    vertex 2460.826517465276 3.1703829566042585 1.8047785488306544e-13
  endloop
endfacet
facet normal 0.0 1.0 0.0
  outer loop
    vertex 3660.826517465276 3.1703829566042585 1.8047785488306544e-13
    vertex 2460.826517465276 3.1703829566042585 3.0000000000001807
    vertex 3660.826517465276 3.1703829566042585 3.0000000000001807
  endloop
endfacet
facet normal 0.0 0.0 -1.0
  outer loop
    vertex 3660.826517465276 61.270382956604266 1.8047785488306544e-13
    vertex 2460.826517465276 23.17038295660426 1.8047785488306544e-13
    vertex 2460.826517465276 61.270382956604266 1.8047785488306544e-13
  endloop
endfacet
facet normal 0.0 0.0 -1.0
  outer loop
    vertex 2460.826517465276 23.17038295660426 1.8047785488306544e-13
    vertex 3660.826517465276 61.270382956604266 1.8047785488306544e-13
    vertex 3660.826517465276 23.17038295660426 1.8047785488306544e-13
  endloop
endfacet
facet normal 1.0 0.0 0.0
  outer loop
    vertex 2460.826517465276 81.27038295660428 1.8047785488306544e-13
    vertex 2460.826517465276 61.270382956604266 3.0000000000001807
    vertex 2460.826517465276 61.270382956604266 1.8047785488306544e-13
  endloop
endfacet
facet normal 1.0 0.0 0.0
  outer loop
    vertex 2460.826517465276 61.270382956604266 3.0000000000001807
    vertex 2460.826517465276 81.27038295660428 1.8047785488306544e-13
    vertex 2460.826517465276 81.27038295660428 3.0000000000001807
  endloop
endfacet
facet normal 0.0 -1.0 0.0
  outer loop
    vertex 3660.826517465276 81.27038295660428 3.0000000000001807
    vertex 2460.826517465276 81.27038295660428 1.8047785488306544e-13
    vertex 3660.826517465276 81.27038295660428 1.8047785488306544e-13
  endloop
endfacet
facet normal 0.0 -1.0 0.0
  outer loop
    vertex 2460.826517465276 81.27038295660428 1.8047785488306544e-13
    vertex 3660.826517465276 81.27038295660428 3.0000000000001807
    vertex 2460.826517465276 81.27038295660428 3.0000000000001807
  endloop
endfacet
facet normal 0.0 0.0 -1.0
  outer loop
    vertex 3660.826517465276 106.67038295660427 1.8047785488306544e-13
    vertex 2460.826517465276 81.27038295660428 1.8047785488306544e-13
    vertex 2460.826517465276 106.67038295660427 1.8047785488306544e-13
  endloop
endfacet
facet normal 0.0 0.0 -1.0
  outer loop
    vertex 2460.826517465276 81.27038295660428 1.8047785488306544e-13
    vertex 3660.826517465276 106.67038295660427 1.8047785488306544e-13
    vertex 3660.826517465276 81.27038295660428 1.8047785488306544e-13
  endloop
endfacet
endsolid BallscrewRouter
