solid BallscrewRouter
facet normal -1.0 0.0 0.0
  outer loop
    vertex 3660.826517465276 291.27038295660424 4.00000000000018
    vertex 3660.826517465276 271.27038295660424 1.8047785488306544e-13
    vertex 3660.826517465276 271.27038295660424 4.00000000000018
  endloop
endfacet
facet normal -1.0 0.0 0.0
  outer loop
    vertex 3660.826517465276 271.27038295660424 1.8047785488306544e-13
    vertex 3660.826517465276 291.27038295660424 4.00000000000018
    vertex 3660.826517465276 291.27038295660424 1.8047785488306544e-13
  endloop
endfacet
facet normal 0.0 0.0 -1.0
  outer loop
    vertex 3660.826517465276 291.27038295660424 4.00000000000018
    vertex 2460.826517465276 271.27038295660424 4.00000000000018
    vertex 2460.826517465276 291.27038295660424 4.00000000000018
  endloop
endfacet
facet normal 0.0 0.0 -1.0
  outer loop
    vertex 2460.826517465276 271.27038295660424 4.00000000000018
    vertex 3660.826517465276 291.27038295660424 4.00000000000018
    vertex 3660.826517465276 271.27038295660424 4.00000000000018
  endloop
endfacet
facet normal 0.0 -1.0 0.0
  outer loop
    vertex 3660.826517465276 413.1703829566042 4.00000000000018
    vertex 2460.826517465276 413.1703829566042 1.8047785488306544e-13
    vertex 3660.826517465276 413.1703829566042 1.8047785488306544e-13
  endloop
endfacet
facet normal 0.0 -1.0 0.0
  outer loop
    vertex 2460.826517465276 413.1703829566042 1.8047785488306544e-13
    vertex 3660.826517465276 413.1703829566042 4.00000000000018
    vertex 2460.826517465276 413.1703829566042 4.00000000000018
  endloop
endfacet
facet normal 1.0 0.0 0.0
  outer loop
    vertex 2460.826517465276 413.1703829566042 1.8047785488306544e-13
    vertex 2460.826517465276 316.67038295660427 4.00000000000018
    vertex 2460.826517465276 316.67038295660427 1.8047785488306544e-13
  endloop
endfacet
facet normal 1.0 0.0 0.0
  outer loop
    vertex 2460.826517465276 316.67038295660427 4.00000000000018
    vertex 2460.826517465276 413.1703829566042 1.8047785488306544e-13
    vertex 2460.826517465276 413.1703829566042 4.00000000000018
  endloop
endfacet
facet normal 1.0 0.0 0.0
  outer loop
    vertex 2460.826517465276 233.17038295660424 1.8047785488306544e-13
    vertex 2460.826517465276 213.17038295660424 4.00000000000018
    vertex 2460.826517465276 213.17038295660424 1.8047785488306544e-13
  endloop
endfacet
facet normal 1.0 0.0 0.0
  outer loop
    vertex 2460.826517465276 213.17038295660424 4.00000000000018
    vertex 2460.826517465276 233.17038295660424 1.8047785488306544e-13
    vertex 2460.826517465276 233.17038295660424 4.00000000000018
  endloop
endfacet
facet normal 0.0 0.0 -1.0
  outer loop
    vertex 3660.826517465276 413.1703829566042 4.00000000000018
    vertex 2460.826517465276 316.67038295660427 4.00000000000018
    vertex 2460.826517465276 413.1703829566042 4.00000000000018
  endloop
endfacet
facet normal 0.0 0.0 -1.0
  outer loop
    vertex 2460.826517465276 316.67038295660427 4.00000000000018
    vertex 3660.826517465276 413.1703829566042 4.00000000000018
    vertex 3660.826517465276 316.67038295660427 4.00000000000018
  endloop
endfacet
facet normal -1.0 0.0 0.0
  outer loop
    vertex 3660.826517465276 233.17038295660424 4.00000000000018
    vertex 3660.826517465276 213.17038295660424 1.8047785488306544e-13
    vertex 3660.826517465276 213.17038295660424 4.00000000000018
  endloop
endfacet
facet normal -1.0 0.0 0.0
  outer loop
    vertex 3660.826517465276 213.17038295660424 1.8047785488306544e-13
    vertex 3660.826517465276 233.17038295660424 4.00000000000018
    vertex 3660.826517465276 233.17038295660424 1.8047785488306544e-13
  endloop
endfacet
facet normal 0.0 0.0 -1.0
  outer loop
    vertex 3660.826517465276 233.17038295660424 4.00000000000018
    vertex 2460.826517465276 213.17038295660424 4.00000000000018
    vertex 2460.826517465276 233.17038295660424 4.00000000000018
  endloop
endfacet
facet normal 0.0 0.0 -1.0
  outer loop
    vertex 2460.826517465276 213.17038295660424 4.00000000000018
    vertex 3660.826517465276 233.17038295660424 4.00000000000018
    vertex 3660.826517465276 213.17038295660424 4.00000000000018
  endloop
endfacet
facet normal -1.0 0.0 0.0
  outer loop
    vertex 3660.826517465276 413.1703829566042 4.00000000000018
    vertex 3660.826517465276 316.67038295660427 1.8047785488306544e-13
    vertex 3660.826517465276 316.67038295660427 4.00000000000018
  endloop
endfacet
facet normal -1.0 0.0 0.0
  outer loop
    vertex 3660.826517465276 316.67038295660427 1.8047785488306544e-13
    vertex 3660.826517465276 413.1703829566042 4.00000000000018
    vertex 3660.826517465276 413.1703829566042 1.8047785488306544e-13
  endloop
endfacet
facet normal 0.0 1.0 0.0
  outer loop
    vertex 2460.826517465276 213.17038295660424 4.00000000000018
    vertex 3660.826517465276 213.17038295660424 1.8047785488306544e-13
    vertex 2460.826517465276 213.17038295660424 1.8047785488306544e-13
  endloop
endfacet
facet normal 0.0 1.0 0.0
  outer loop
    vertex 3660.826517465276 213.17038295660424 1.8047785488306544e-13
    vertex 2460.826517465276 213.17038295660424 4.00000000000018
    vertex 3660.826517465276 213.17038295660424 4.00000000000018
  endloop
endfacet
facet normal 1.0 0.0 0.0
  outer loop
    vertex 2460.826517465276 291.27038295660424 1.8047785488306544e-13
    vertex 2460.826517465276 271.27038295660424 4.00000000000018
    vertex 2460.826517465276 271.27038295660424 1.8047785488306544e-13
  endloop
endfacet
facet normal 1.0 0.0 0.0
  outer loop
    vertex 2460.826517465276 271.27038295660424 4.00000000000018
    vertex 2460.826517465276 291.27038295660424 1.8047785488306544e-13
    vertex 2460.826517465276 291.27038295660424 4.00000000000018
  endloop
endfacet
facet normal 0.0 0.0 -1.0
  outer loop
    vertex 2460.826517465276 316.67038295660427 4.00000000000018
    vertex 2480.8265174652765 307.4703829566043 4.00000000000018
    vertex 2460.826517465276 291.27038295660424 4.00000000000018
  endloop
endfacet
facet normal 0.0 0.0 -1.0
  outer loop
    vertex 2480.8265174652765 307.4703829566043 4.00000000000018
    vertex 2460.826517465276 316.67038295660427 4.00000000000018
    vertex 3660.826517465276 316.67038295660427 4.00000000000018
  endloop
endfacet
facet normal 0.0 0.0 -1.0
  outer loop
    vertex 2480.8265174652765 307.4703829566043 4.00000000000018
    vertex 3660.826517465276 316.67038295660427 4.00000000000018
    vertex 3640.8265174652765 307.4703829566043 4.00000000000018
  endloop
endfacet
facet normal 0.0 0.0 -1.0
  outer loop
    vertex 3640.8265174652765 307.4703829566043 4.00000000000018
    vertex 3660.826517465276 316.67038295660427 4.00000000000018
    vertex 3640.8265174652765 300.4703829566042 4.00000000000018
  endloop
endfacet
facet normal 0.0 0.0 -1.0
  outer loop
    vertex 2460.826517465276 291.27038295660424 4.00000000000018
    vertex 2480.8265174652765 300.4703829566042 4.00000000000018
    vertex 3660.826517465276 291.27038295660424 4.00000000000018
  endloop
endfacet
facet normal 0.0 0.0 -1.0
  outer loop
    vertex 2480.8265174652765 300.4703829566042 4.00000000000018
    vertex 2460.826517465276 291.27038295660424 4.00000000000018
    vertex 2480.8265174652765 307.4703829566043 4.00000000000018
  endloop
endfacet
facet normal 0.0 0.0 -1.0
  outer loop
    vertex 3660.826517465276 291.27038295660424 4.00000000000018
    vertex 2480.8265174652765 300.4703829566042 4.00000000000018
    vertex 3640.8265174652765 300.4703829566042 4.00000000000018
  endloop
endfacet
facet normal 0.0 0.0 -1.0
  outer loop
    vertex 3660.826517465276 291.27038295660424 4.00000000000018
    vertex 3640.8265174652765 300.4703829566042 4.00000000000018
    vertex 3660.826517465276 316.67038295660427 4.00000000000018
  endloop
endfacet
facet normal 1.0 0.0 0.0
  outer loop
    vertex 2460.826517465276 316.67038295660427 1.8047785488306544e-13
    vertex 2460.826517465276 291.27038295660424 4.00000000000018
    vertex 2460.826517465276 291.27038295660424 1.8047785488306544e-13
  endloop
endfacet
facet normal 1.0 0.0 0.0
  outer loop
    vertex 2460.826517465276 291.27038295660424 4.00000000000018
    vertex 2460.826517465276 316.67038295660427 1.8047785488306544e-13
    vertex 2460.826517465276 316.67038295660427 4.00000000000018
  endloop
endfacet
facet normal 0.0 0.0 -1.0
  outer loop
    vertex 2460.826517465276 271.27038295660424 4.00000000000018
    vertex 2500.826517465276 256.27038295660424 4.00000000000018
    vertex 2460.826517465276 233.17038295660424 4.00000000000018
  endloop
endfacet
facet normal 0.0 0.0 -1.0
  outer loop
    vertex 2500.826517465276 256.27038295660424 4.00000000000018
    vertex 2460.826517465276 271.27038295660424 4.00000000000018
    vertex 3660.826517465276 271.27038295660424 4.00000000000018
  endloop
endfacet
facet normal 0.0 0.0 -1.0
  outer loop
    vertex 2500.826517465276 256.27038295660424 4.00000000000018
    vertex 3660.826517465276 271.27038295660424 4.00000000000018
    vertex 2700.826517465276 256.27038295660424 4.00000000000018
  endloop
endfacet
facet normal 0.0 0.0 -1.0
  outer loop
    vertex 2700.826517465276 256.27038295660424 4.00000000000018
    vertex 3660.826517465276 271.27038295660424 4.00000000000018
    vertex 2700.826517465276 248.17038295660427 4.00000000000018
  endloop
endfacet
facet normal 0.0 0.0 -1.0
  outer loop
    vertex 2700.826517465276 248.17038295660427 4.00000000000018
    vertex 3660.826517465276 271.27038295660424 4.00000000000018
    vertex 3420.826517465276 256.27038295660424 4.00000000000018
  endloop
endfacet
facet normal 0.0 0.0 -1.0
  outer loop
    vertex 3420.826517465276 256.27038295660424 4.00000000000018
    vertex 3660.826517465276 271.27038295660424 4.00000000000018
    vertex 3620.826517465276 256.27038295660424 4.00000000000018
  endloop
endfacet
facet normal 0.0 0.0 -1.0
  outer loop
    vertex 3620.826517465276 256.27038295660424 4.00000000000018
    vertex 3660.826517465276 271.27038295660424 4.00000000000018
    vertex 3620.826517465276 248.17038295660427 4.00000000000018
  endloop
endfacet
facet normal 0.0 0.0 -1.0
  outer loop
    vertex 2460.826517465276 233.17038295660424 4.00000000000018
    vertex 2500.826517465276 248.17038295660427 4.00000000000018
    vertex 3660.826517465276 233.17038295660424 4.00000000000018
  endloop
endfacet
facet normal 0.0 0.0 -1.0
  outer loop
    vertex 2500.826517465276 248.17038295660427 4.00000000000018
    vertex 2460.826517465276 233.17038295660424 4.00000000000018
    vertex 2500.826517465276 256.27038295660424 4.00000000000018
  endloop
endfacet
facet normal 0.0 0.0 -1.0
  outer loop
    vertex 3660.826517465276 233.17038295660424 4.00000000000018
    vertex 2500.826517465276 248.17038295660427 4.00000000000018
    vertex 2700.826517465276 248.17038295660427 4.00000000000018
  endloop
endfacet
facet normal 0.0 0.0 -1.0
  outer loop
    vertex 3660.826517465276 233.17038295660424 4.00000000000018
    vertex 2700.826517465276 248.17038295660427 4.00000000000018
    vertex 3420.826517465276 248.17038295660427 4.00000000000018
  endloop
endfacet
facet normal 0.0 0.0 -1.0
  outer loop
    vertex 3420.826517465276 248.17038295660427 4.00000000000018
    vertex 2700.826517465276 248.17038295660427 4.00000000000018
    vertex 3420.826517465276 256.27038295660424 4.00000000000018
  endloop
endfacet
facet normal 0.0 0.0 -1.0
  outer loop
    vertex 3660.826517465276 233.17038295660424 4.00000000000018
    vertex 3420.826517465276 248.17038295660427 4.00000000000018
    vertex 3620.826517465276 248.17038295660427 4.00000000000018
  endloop
endfacet
facet normal 0.0 0.0 -1.0
  outer loop
    vertex 3660.826517465276 233.17038295660424 4.00000000000018
    vertex 3620.826517465276 248.17038295660427 4.00000000000018
    vertex 3660.826517465276 271.27038295660424 4.00000000000018
  endloop
endfacet
facet normal -1.0 0.0 0.0
  outer loop
    vertex 3660.826517465276 271.27038295660424 4.00000000000018
    vertex 3660.826517465276 233.17038295660424 1.8047785488306544e-13
    vertex 3660.826517465276 233.17038295660424 4.00000000000018
  endloop
endfacet
facet normal -1.0 0.0 0.0
  outer loop
    vertex 3660.826517465276 233.17038295660424 1.8047785488306544e-13
    vertex 3660.826517465276 271.27038295660424 4.00000000000018
    vertex 3660.826517465276 271.27038295660424 1.8047785488306544e-13
  endloop
endfacet
facet normal 1.0 0.0 0.0
  outer loop
    vertex 2460.826517465276 271.27038295660424 1.8047785488306544e-13
    vertex 2460.826517465276 233.17038295660424 4.00000000000018
    vertex 2460.826517465276 233.17038295660424 1.8047785488306544e-13
  endloop
endfacet
facet normal 1.0 0.0 0.0
  outer loop
    vertex 2460.826517465276 233.17038295660424 4.00000000000018
    vertex 2460.826517465276 271.27038295660424 1.8047785488306544e-13
    vertex 2460.826517465276 271.27038295660424 4.00000000000018
  endloop
endfacet
facet normal 1.0 0.0 0.0
  outer loop
    vertex 2700.826517465276 256.27038295660424 1.8893775433070914e-13
    vertex 2700.826517465276 248.17038295660427 4.00000000000018
    vertex 2700.826517465276 248.17038295660427 1.8893775433070914e-13
  endloop
endfacet
facet normal 1.0 0.0 0.0
  outer loop
    vertex 2700.826517465276 248.17038295660427 4.00000000000018
    vertex 2700.826517465276 256.27038295660424 1.8893775433070914e-13
    vertex 2700.826517465276 256.27038295660424 4.00000000000018
  endloop
endfacet
facet normal -0.0 -1.0 -0.0
  outer loop
    vertex 2700.826517465276 248.17038295660427 4.00000000000018
    vertex 2500.826517465276 248.17038295660427 1.8893775433070914e-13
    vertex 2700.826517465276 248.17038295660427 1.8893775433070914e-13
  endloop
endfacet
facet normal -0.0 -1.0 -0.0
  outer loop
    vertex 2500.826517465276 248.17038295660427 1.8893775433070914e-13
    vertex 2700.826517465276 248.17038295660427 4.00000000000018
    vertex 2500.826517465276 248.17038295660427 4.00000000000018
  endloop
endfacet
facet normal -1.0 0.0 0.0
  outer loop
    vertex 2500.826517465276 256.27038295660424 4.00000000000018
    vertex 2500.826517465276 248.17038295660427 1.8893775433070914e-13
    vertex 2500.826517465276 248.17038295660427 4.00000000000018
  endloop
endfacet
facet normal -1.0 0.0 0.0
  outer loop
    vertex 2500.826517465276 248.17038295660427 1.8893775433070914e-13
    vertex 2500.826517465276 256.27038295660424 4.00000000000018
    vertex 2500.826517465276 256.27038295660424 1.8893775433070914e-13
  endloop
endfacet
facet normal 0.0 1.0 0.0
  outer loop
    vertex 2500.826517465276 256.27038295660424 4.00000000000018
    vertex 2700.826517465276 256.27038295660424 1.8893775433070914e-13
    vertex 2500.826517465276 256.27038295660424 1.8893775433070914e-13
  endloop
endfacet
facet normal 0.0 1.0 0.0
  outer loop
    vertex 2700.826517465276 256.27038295660424 1.8893775433070914e-13
    vertex 2500.826517465276 256.27038295660424 4.00000000000018
    vertex 2700.826517465276 256.27038295660424 4.00000000000018
  endloop
endfacet
facet normal 0.0 1.0 0.0
  outer loop
    vertex 3420.826517465276 256.27038295660424 4.00000000000018
    vertex 3620.826517465276 256.27038295660424 1.9175772081325702e-13
    vertex 3420.826517465276 256.27038295660424 1.9175772081325702e-13
  endloop
endfacet
facet normal 0.0 1.0 0.0
  outer loop
    vertex 3620.826517465276 256.27038295660424 1.9175772081325702e-13
    vertex 3420.826517465276 256.27038295660424 4.00000000000018
    vertex 3620.826517465276 256.27038295660424 4.00000000000018
  endloop
endfacet
facet normal 1.0 0.0 0.0
  outer loop
    vertex 3620.826517465276 256.27038295660424 1.9175772081325702e-13
    vertex 3620.826517465276 248.17038295660427 4.00000000000018
    vertex 3620.826517465276 248.17038295660427 1.9175772081325702e-13
  endloop
endfacet
facet normal 1.0 0.0 0.0
  outer loop
    vertex 3620.826517465276 248.17038295660427 4.00000000000018
    vertex 3620.826517465276 256.27038295660424 1.9175772081325702e-13
    vertex 3620.826517465276 256.27038295660424 4.00000000000018
  endloop
endfacet
facet normal -0.0 -1.0 -0.0
  outer loop
    vertex 3620.826517465276 248.17038295660427 4.00000000000018
    vertex 3420.826517465276 248.17038295660427 1.9175772081325702e-13
    vertex 3620.826517465276 248.17038295660427 1.9175772081325702e-13
  endloop
endfacet
facet normal -0.0 -1.0 -0.0
  outer loop
    vertex 3420.826517465276 248.17038295660427 1.9175772081325702e-13
    vertex 3620.826517465276 248.17038295660427 4.00000000000018
    vertex 3420.826517465276 248.17038295660427 4.00000000000018
  endloop
endfacet
facet normal -1.0 0.0 0.0
  outer loop
    vertex 3420.826517465276 256.27038295660424 4.00000000000018
    vertex 3420.826517465276 248.17038295660427 1.9175772081325702e-13
    vertex 3420.826517465276 248.17038295660427 4.00000000000018
  endloop
endfacet
facet normal -1.0 0.0 0.0
  outer loop
    vertex 3420.826517465276 248.17038295660427 1.9175772081325702e-13
    vertex 3420.826517465276 256.27038295660424 4.00000000000018
    vertex 3420.826517465276 256.27038295660424 1.9175772081325702e-13
  endloop
endfacet
facet normal -1.0 0.0 0.0
  outer loop
    vertex 3660.826517465276 316.67038295660427 4.00000000000018
    vertex 3660.826517465276 291.27038295660424 1.8047785488306544e-13
    vertex 3660.826517465276 291.27038295660424 4.00000000000018
  endloop
endfacet
facet normal -1.0 0.0 0.0
  outer loop
    vertex 3660.826517465276 291.27038295660424 1.8047785488306544e-13
    vertex 3660.826517465276 316.67038295660427 4.00000000000018
    vertex 3660.826517465276 316.67038295660427 1.8047785488306544e-13
  endloop
endfacet
facet normal 0.0 0.0 1.0
  outer loop
    vertex 3660.826517465276 213.17038295660424 1.8047785488306544e-13
    vertex 2460.826517465276 233.17038295660424 1.8047785488306544e-13
    vertex 2460.826517465276 213.17038295660424 1.8047785488306544e-13
  endloop
endfacet
facet normal 0.0 0.0 1.0
  outer loop
    vertex 2460.826517465276 233.17038295660424 1.8047785488306544e-13
    vertex 3660.826517465276 213.17038295660424 1.8047785488306544e-13
    vertex 2500.826517465276 248.17038295660427 1.8893775433070914e-13
  endloop
endfacet
facet normal 0.0 0.0 1.0
  outer loop
    vertex 2460.826517465276 233.17038295660424 1.8047785488306544e-13
    vertex 2500.826517465276 248.17038295660427 1.8893775433070914e-13
    vertex 2460.826517465276 271.27038295660424 1.8047785488306544e-13
  endloop
endfacet
facet normal 0.0 0.0 1.0
  outer loop
    vertex 2460.826517465276 271.27038295660424 1.8047785488306544e-13
    vertex 2500.826517465276 248.17038295660427 1.8893775433070914e-13
    vertex 2460.826517465276 291.27038295660424 1.8047785488306544e-13
  endloop
endfacet
facet normal 0.0 0.0 1.0
  outer loop
    vertex 2460.826517465276 291.27038295660424 1.8047785488306544e-13
    vertex 2500.826517465276 248.17038295660427 1.8893775433070914e-13
    vertex 2460.826517465276 316.67038295660427 1.8047785488306544e-13
  endloop
endfacet
facet normal 0.0 0.0 1.0
  outer loop
    vertex 2460.826517465276 316.67038295660427 1.8047785488306544e-13
    vertex 2500.826517465276 248.17038295660427 1.8893775433070914e-13
    vertex 2480.8265174652765 300.4703829566042 1.8893775433070914e-13
  endloop
endfacet
facet normal 0.0 0.0 1.0
  outer loop
    vertex 2460.826517465276 316.67038295660427 1.8047785488306544e-13
    vertex 2480.8265174652765 300.4703829566042 1.8893775433070914e-13
    vertex 2460.826517465276 413.1703829566042 1.8047785488306544e-13
  endloop
endfacet
facet normal 0.0 0.0 1.0
  outer loop
    vertex 2500.826517465276 248.17038295660427 1.8893775433070914e-13
    vertex 3660.826517465276 213.17038295660424 1.8047785488306544e-13
    vertex 2700.826517465276 248.17038295660427 1.8893775433070914e-13
  endloop
endfacet
facet normal 0.0 0.0 1.0
  outer loop
    vertex 2700.826517465276 248.17038295660427 1.8893775433070914e-13
    vertex 3660.826517465276 213.17038295660424 1.8047785488306544e-13
    vertex 2700.826517465276 256.27038295660424 1.8893775433070914e-13
  endloop
endfacet
facet normal 0.0 0.0 1.0
  outer loop
    vertex 2700.826517465276 256.27038295660424 1.8893775433070914e-13
    vertex 3660.826517465276 213.17038295660424 1.8047785488306544e-13
    vertex 3420.826517465276 248.17038295660427 1.9175772081325702e-13
  endloop
endfacet
facet normal 0.0 0.0 1.0
  outer loop
    vertex 3420.826517465276 248.17038295660427 1.9175772081325702e-13
    vertex 3660.826517465276 213.17038295660424 1.8047785488306544e-13
    vertex 3620.826517465276 248.17038295660427 1.9175772081325702e-13
  endloop
endfacet
facet normal 0.0 0.0 1.0
  outer loop
    vertex 3620.826517465276 248.17038295660427 1.9175772081325702e-13
    vertex 3660.826517465276 213.17038295660424 1.8047785488306544e-13
    vertex 3620.826517465276 256.27038295660424 1.9175772081325702e-13
  endloop
endfacet
facet normal 0.0 0.0 1.0
  outer loop
    vertex 3620.826517465276 256.27038295660424 1.9175772081325702e-13
    vertex 3660.826517465276 213.17038295660424 1.8047785488306544e-13
    vertex 3640.8265174652765 300.4703829566042 1.8893775433070914e-13
  endloop
endfacet
facet normal 0.0 0.0 1.0
  outer loop
    vertex 3640.8265174652765 300.4703829566042 1.8893775433070914e-13
    vertex 3660.826517465276 213.17038295660424 1.8047785488306544e-13
    vertex 3640.8265174652765 307.4703829566043 1.8893775433070914e-13
  endloop
endfacet
facet normal 0.0 0.0 1.0
  outer loop
    vertex 2460.826517465276 413.1703829566042 1.8047785488306544e-13
    vertex 2480.8265174652765 307.4703829566043 1.8893775433070914e-13
    vertex 3660.826517465276 413.1703829566042 1.8047785488306544e-13
  endloop
endfacet
facet normal 0.0 0.0 1.0
  outer loop
    vertex 2480.8265174652765 307.4703829566043 1.8893775433070914e-13
    vertex 2460.826517465276 413.1703829566042 1.8047785488306544e-13
    vertex 2480.8265174652765 300.4703829566042 1.8893775433070914e-13
  endloop
endfacet
facet normal 0.0 0.0 1.0
  outer loop
    vertex 3660.826517465276 413.1703829566042 1.8047785488306544e-13
    vertex 2480.8265174652765 307.4703829566043 1.8893775433070914e-13
    vertex 3640.8265174652765 307.4703829566043 1.8893775433070914e-13
  endloop
endfacet
facet normal 0.0 0.0 1.0
  outer loop
    vertex 3660.826517465276 413.1703829566042 1.8047785488306544e-13
    vertex 3640.8265174652765 307.4703829566043 1.8893775433070914e-13
    vertex 3660.826517465276 213.17038295660424 1.8047785488306544e-13
  endloop
endfacet
facet normal 0.0 0.0 1.0
  outer loop
    vertex 3660.826517465276 413.1703829566042 1.8047785488306544e-13
    vertex 3660.826517465276 213.17038295660424 1.8047785488306544e-13
    vertex 3660.826517465276 233.17038295660424 1.8047785488306544e-13
  endloop
endfacet
facet normal 0.0 0.0 1.0
  outer loop
    vertex 3660.826517465276 413.1703829566042 1.8047785488306544e-13
    vertex 3660.826517465276 233.17038295660424 1.8047785488306544e-13
    vertex 3660.826517465276 271.27038295660424 1.8047785488306544e-13
  endloop
endfacet
facet normal 0.0 0.0 1.0
  outer loop
    vertex 3660.826517465276 413.1703829566042 1.8047785488306544e-13
    vertex 3660.826517465276 271.27038295660424 1.8047785488306544e-13
    vertex 3660.826517465276 291.27038295660424 1.8047785488306544e-13
  endloop
endfacet
facet normal 0.0 0.0 1.0
  outer loop
    vertex 3660.826517465276 413.1703829566042 1.8047785488306544e-13
    vertex 3660.826517465276 291.27038295660424 1.8047785488306544e-13
    vertex 3660.826517465276 316.67038295660427 1.8047785488306544e-13
  endloop
endfacet
facet normal 0.0 0.0 1.0
  outer loop
    vertex 2480.8265174652765 300.4703829566042 1.8893775433070914e-13
    vertex 2500.826517465276 256.27038295660424 1.8893775433070914e-13
    vertex 3640.8265174652765 300.4703829566042 1.8893775433070914e-13
  endloop
endfacet
facet normal 0.0 0.0 1.0
  outer loop
    vertex 2500.826517465276 256.27038295660424 1.8893775433070914e-13
    vertex 2480.8265174652765 300.4703829566042 1.8893775433070914e-13
    vertex 2500.826517465276 248.17038295660427 1.8893775433070914e-13
  endloop
endfacet
facet normal 0.0 0.0 1.0
  outer loop
    vertex 3640.8265174652765 300.4703829566042 1.8893775433070914e-13
    vertex 2500.826517465276 256.27038295660424 1.8893775433070914e-13
    vertex 2700.826517465276 256.27038295660424 1.8893775433070914e-13
  endloop
endfacet
facet normal 0.0 0.0 1.0
  outer loop
    vertex 3640.8265174652765 300.4703829566042 1.8893775433070914e-13
    vertex 2700.826517465276 256.27038295660424 1.8893775433070914e-13
    vertex 3420.826517465276 256.27038295660424 1.9175772081325702e-13
  endloop
endfacet
facet normal 0.0 0.0 1.0
  outer loop
    vertex 3420.826517465276 256.27038295660424 1.9175772081325702e-13
    vertex 2700.826517465276 256.27038295660424 1.8893775433070914e-13
    vertex 3420.826517465276 248.17038295660427 1.9175772081325702e-13
  endloop
endfacet
facet normal 0.0 0.0 1.0
  outer loop
    vertex 3640.8265174652765 300.4703829566042 1.8893775433070914e-13
    vertex 3420.826517465276 256.27038295660424 1.9175772081325702e-13
    vertex 3620.826517465276 256.27038295660424 1.9175772081325702e-13
  endloop
endfacet
facet normal -0.0 -1.0 -0.0
  outer loop
    vertex 3640.8265174652765 300.4703829566042 4.00000000000018
    vertex 2480.8265174652765 300.4703829566042 1.8893775433070914e-13
    vertex 3640.8265174652765 300.4703829566042 1.8893775433070914e-13
  endloop
endfacet
facet normal -0.0 -1.0 -0.0
  outer loop
    vertex 2480.8265174652765 300.4703829566042 1.8893775433070914e-13
    vertex 3640.8265174652765 300.4703829566042 4.00000000000018
    vertex 2480.8265174652765 300.4703829566042 4.00000000000018
  endloop
endfacet
facet normal -1.0 0.0 0.0
  outer loop
    vertex 2480.8265174652765 307.4703829566043 4.00000000000018
    vertex 2480.8265174652765 300.4703829566042 1.8893775433070914e-13
    vertex 2480.8265174652765 300.4703829566042 4.00000000000018
  endloop
endfacet
facet normal -1.0 0.0 0.0
  outer loop
    vertex 2480.8265174652765 300.4703829566042 1.8893775433070914e-13
    vertex 2480.8265174652765 307.4703829566043 4.00000000000018
    vertex 2480.8265174652765 307.4703829566043 1.8893775433070914e-13
  endloop
endfacet
facet normal 0.0 1.0 0.0
  outer loop
    vertex 2480.8265174652765 307.4703829566043 4.00000000000018
    vertex 3640.8265174652765 307.4703829566043 1.8893775433070914e-13
    vertex 2480.8265174652765 307.4703829566043 1.8893775433070914e-13
  endloop
endfacet
facet normal 0.0 1.0 0.0
  outer loop
    vertex 3640.8265174652765 307.4703829566043 1.8893775433070914e-13
    vertex 2480.8265174652765 307.4703829566043 4.00000000000018
    vertex 3640.8265174652765 307.4703829566043 4.00000000000018
  endloop
endfacet
facet normal 1.0 0.0 0.0
  outer loop
    vertex 3640.8265174652765 307.4703829566043 1.8893775433070914e-13
    vertex 3640.8265174652765 300.4703829566042 4.00000000000018
    vertex 3640.8265174652765 300.4703829566042 1.8893775433070914e-13
  endloop
endfacet
facet normal 1.0 0.0 0.0
  outer loop
    vertex 3640.8265174652765 300.4703829566042 4.00000000000018
    vertex 3640.8265174652765 307.4703829566043 1.8893775433070914e-13
    vertex 3640.8265174652765 307.4703829566043 4.00000000000018
  endloop
endfacet
endsolid BallscrewRouter
