<?xml version="1.0" standalone="no"?>
<!DOCTYPE svg PUBLIC "-//W3C//DTD SVG 20010904//EN"
 "http://www.w3.org/TR/2001/REC-SVG-20010904/DTD/svg10.dtd">
<svg version="1.0" xmlns="http://www.w3.org/2000/svg"
 width="2550.000000pt" height="3300.000000pt" viewBox="0 0 2550.000000 3300.000000"
 preserveAspectRatio="xMidYMid meet">
<metadata>
Created by potrace 1.11, written by Peter Selinger 2001-2013
</metadata>
<g transform="translate(0.000000,3300.000000) scale(0.100000,-0.100000)"
stroke-width="4px">
<path d="M8440 31841 c-131 -42 -323 -157 -553 -331 -54 -41 -118 -88 -141
-105 -67 -47 -271 -218 -446 -374 -47 -42 -105 -94 -130 -115 -41 -36 -144
-130 -314 -286 -109 -100 -105 -97 -566 -545 -85 -82 -180 -174 -211 -203
l-57 -53 -65 48 c-127 93 -183 121 -327 159 -103 28 -354 26 -490 -4 -275 -61
-596 -217 -757 -369 -64 -60 -73 -72 -73 -104 0 -67 87 -120 278 -170 308 -80
674 -89 1081 -28 73 11 136 18 139 15 3 -3 -17 -30 -44 -59 -27 -30 -80 -91
-119 -137 -38 -46 -90 -107 -115 -135 -25 -29 -74 -87 -110 -130 -36 -43 -70
-83 -75 -89 -41 -44 -441 -524 -531 -637 -18 -21 -48 -58 -67 -81 -19 -24 -74
-90 -121 -148 -47 -58 -103 -125 -124 -149 -20 -23 -48 -58 -62 -76 -14 -18
-61 -77 -105 -130 -44 -53 -93 -113 -110 -134 -47 -59 -313 -384 -419 -511
-53 -63 -122 -146 -153 -185 -31 -38 -67 -81 -80 -95 -12 -14 -91 -108 -174
-210 -203 -246 -216 -263 -274 -329 -27 -32 -79 -93 -115 -136 -36 -43 -85
-102 -110 -129 -25 -28 -79 -91 -120 -141 -41 -49 -77 -92 -80 -95 -3 -3 -15
-17 -27 -31 l-23 -25 20 -37 c42 -78 142 -411 189 -629 54 -247 78 -383 116
-658 27 -190 35 -251 60 -475 27 -243 87 -996 90 -1140 1 -44 7 -188 14 -320
22 -424 29 -854 25 -1560 -2 -379 -6 -708 -8 -730 -3 -22 -7 -134 -11 -250 -6
-229 -8 -274 -30 -630 -25 -397 -59 -749 -86 -889 -28 -145 -111 -319 -218
-456 -145 -187 -402 -354 -636 -415 -174 -46 -420 -45 -570 1 -156 48 -301
153 -376 271 -38 61 -68 79 -60 37 14 -76 100 -341 144 -445 50 -118 145 -291
185 -336 9 -12 35 -42 56 -69 109 -136 302 -258 439 -278 80 -12 243 -7 314 9
86 20 152 46 280 111 89 46 140 80 291 197 82 63 233 221 334 347 92 116 218
299 218 317 0 4 16 29 34 57 37 54 106 182 153 281 15 33 37 78 48 99 l20 40
115 19 c203 33 805 195 1225 329 780 249 1237 417 1460 536 72 38 195 132 259
197 101 103 117 126 196 285 28 56 75 201 103 320 25 102 45 290 67 620 12
168 27 391 35 495 20 260 52 813 60 1025 3 96 9 204 11 240 10 119 5 1391 -6
1640 -27 634 -90 1219 -181 1700 -39 205 -126 577 -147 630 -8 21 -25 29 -113
53 -57 16 -146 42 -197 59 -52 17 -166 52 -255 78 -310 90 -756 228 -765 235
-4 4 123 237 236 433 22 37 74 130 118 207 43 77 94 168 113 202 20 34 63 108
95 165 50 88 274 470 389 663 111 188 198 315 253 372 8 8 64 17 141 23 303
25 485 56 607 105 34 14 66 25 70 25 18 0 155 75 221 120 67 47 164 145 211
214 48 70 124 217 124 239 0 7 4 17 9 23 34 37 250 620 327 884 14 47 38 126
54 175 27 84 62 214 131 485 36 139 72 333 93 495 19 146 8 324 -23 398 -52
121 -147 161 -281 118z m164 -36 c43 -21 71 -60 93 -131 35 -119 18 -433 -37
-669 -15 -65 -98 -396 -113 -455 -57 -214 -217 -713 -279 -870 -16 -41 -36
-95 -45 -120 -8 -25 -27 -73 -43 -106 -15 -34 -36 -83 -45 -110 -25 -74 -122
-262 -165 -319 -200 -268 -514 -396 -1062 -434 -75 -5 -145 -14 -157 -20 -32
-17 -164 -198 -221 -302 -14 -25 -44 -77 -68 -115 -61 -98 -139 -228 -182
-304 -20 -36 -71 -123 -112 -195 -152 -263 -218 -379 -218 -383 0 -2 -22 -41
-48 -86 -27 -44 -84 -144 -127 -221 -43 -77 -96 -171 -119 -210 -88 -152 -152
-273 -145 -278 6 -6 322 -107 333 -107 5 0 86 -24 180 -54 94 -30 288 -89 431
-131 143 -42 292 -86 330 -98 l70 -22 47 -185 c60 -233 148 -700 177 -940 81
-659 110 -1136 116 -1875 6 -775 -8 -1177 -75 -2145 -10 -151 -22 -324 -25
-385 -27 -486 -56 -727 -116 -945 -26 -94 -34 -114 -88 -220 -68 -134 -188
-275 -286 -338 -22 -14 -49 -33 -60 -43 -48 -40 -301 -158 -448 -209 -45 -15
-129 -46 -187 -68 -115 -43 -757 -261 -805 -272 -16 -4 -88 -27 -160 -50 -414
-133 -1129 -319 -1232 -320 -41 0 -63 -9 -63 -25 0 -20 -142 -301 -204 -403
-31 -51 -56 -95 -56 -98 0 -2 -26 -42 -57 -87 -328 -473 -682 -759 -1042 -842
-85 -20 -249 -20 -325 0 -308 81 -562 402 -715 899 -12 37 -21 73 -21 78 0 5
31 -19 69 -54 157 -145 347 -211 604 -209 107 1 258 25 362 58 60 18 210 93
280 138 188 122 345 307 443 521 23 51 49 114 57 140 46 159 116 1020 130
1589 4 138 8 270 10 295 3 25 5 416 5 870 0 805 -11 1383 -31 1625 -6 66 -10
129 -11 140 -2 113 -49 737 -84 1100 -10 103 -44 363 -70 535 -14 91 -32 210
-40 265 -20 135 -109 528 -144 640 -19 60 -102 296 -114 326 -5 10 12 36 52
80 32 35 67 76 77 90 11 15 69 84 128 154 60 70 116 136 125 147 10 11 36 42
60 68 23 26 52 61 64 76 12 16 40 50 62 75 23 26 64 75 93 110 47 58 457 553
583 704 28 33 77 94 111 135 33 41 87 108 120 148 32 39 86 105 118 145 76 92
168 206 229 281 26 32 63 77 83 100 19 22 73 88 120 146 46 58 121 148 166
201 46 53 83 99 83 103 0 3 8 14 18 25 25 27 141 164 213 251 33 41 81 97 105
125 24 27 74 86 111 130 37 44 95 112 128 151 33 39 71 84 84 100 13 16 40 47
60 69 20 23 55 63 78 90 23 28 56 66 72 85 35 40 39 60 14 60 -10 0 -85 -11
-168 -25 -411 -67 -762 -58 -1105 26 -101 25 -213 79 -235 113 -22 34 -12 50
80 127 150 127 465 281 669 329 143 33 304 45 423 31 105 -12 231 -48 287 -82
17 -10 48 -28 68 -39 21 -11 62 -40 92 -65 31 -25 59 -45 62 -45 4 0 99 91
213 203 357 351 446 435 841 798 147 135 149 136 240 214 46 39 124 106 174
150 83 74 201 169 352 285 48 37 207 149 288 203 10 6 28 19 40 28 36 28 196
109 255 129 68 24 132 25 175 5z"/>
<path d="M6412 29800 c-97 -59 -95 -201 4 -257 69 -40 139 -25 188 39 52 69
39 151 -32 205 -52 39 -109 44 -160 13z m154 -41 c58 -54 52 -140 -14 -184
-40 -27 -64 -30 -108 -15 -90 33 -96 175 -9 216 41 18 102 11 131 -17z"/>
<path d="M10880 28921 c-208 -57 -382 -215 -504 -457 -55 -111 -96 -245 -126
-417 -14 -79 -4 -104 27 -67 128 155 217 232 330 286 187 88 317 85 533 -13
135 -62 376 -283 459 -422 33 -57 41 -81 55 -176 17 -117 30 -250 46 -460 5
-71 17 -215 25 -320 65 -832 99 -1755 99 -2745 1 -966 -21 -1369 -100 -1845
-13 -82 -29 -179 -35 -215 -38 -233 -93 -463 -149 -625 -88 -252 -235 -485
-426 -670 -109 -106 -242 -221 -289 -250 -16 -10 -43 -30 -60 -45 -102 -89
-667 -464 -830 -549 -44 -24 -138 -74 -210 -112 -71 -38 -173 -88 -225 -110
-52 -23 -99 -44 -105 -48 -14 -10 -120 -53 -260 -104 -180 -67 -278 -91 -370
-92 l-79 0 -28 55 c-15 30 -48 117 -73 192 -80 245 -203 530 -283 658 -64 101
-100 155 -119 175 -10 11 -31 37 -47 57 -36 49 -151 134 -206 153 -56 20 -135
19 -170 -2 -34 -20 -50 -52 -50 -101 0 -55 86 -561 109 -645 101 -359 326
-638 579 -718 36 -11 56 -22 54 -31 -2 -7 -25 -70 -53 -139 -27 -70 -49 -131
-49 -135 0 -5 -27 -79 -60 -164 -33 -85 -60 -158 -60 -163 0 -13 -70 -190 -79
-200 -4 -4 -45 -18 -92 -32 -97 -28 -376 -138 -495 -196 -45 -21 -84 -39 -87
-39 -14 0 -271 -153 -323 -192 -70 -54 -131 -118 -144 -154 -30 -77 51 -160
200 -205 64 -20 98 -23 235 -23 186 -1 235 9 355 65 123 59 197 116 358 274
79 77 157 149 174 159 30 19 31 19 66 0 114 -60 497 -435 792 -775 154 -176
180 -208 305 -374 209 -275 272 -310 453 -249 127 42 268 120 334 185 69 67
99 129 106 216 7 96 -13 192 -95 451 -42 130 -89 282 -105 336 -16 55 -42 140
-59 190 -16 50 -38 123 -48 161 -10 39 -39 135 -64 215 -97 310 -125 432 -112
490 8 37 65 104 106 125 29 15 254 94 359 126 65 20 461 120 700 177 608 146
1121 305 1645 508 77 30 149 59 160 64 11 5 74 32 140 60 150 64 362 163 435
202 30 16 79 40 109 54 67 31 271 151 366 214 230 155 441 359 563 545 130
198 229 427 281 655 30 127 58 383 76 676 28 464 17 1741 -20 2234 -2 36 -9
148 -15 250 -21 381 -59 794 -105 1155 -9 66 -20 155 -25 198 -42 349 -143
642 -279 805 -82 98 -251 222 -441 325 -114 61 -374 191 -485 242 -131 60
-495 215 -506 215 -6 0 -42 14 -82 31 -153 66 -820 297 -931 323 -54 12 -59
18 -140 172 -95 178 -280 400 -411 491 -56 39 -190 101 -251 117 -80 21 -192
19 -274 -3z m255 -25 c265 -72 493 -292 694 -668 46 -85 56 -97 84 -103 18 -4
104 -31 192 -60 88 -29 180 -59 205 -65 25 -6 59 -18 75 -25 52 -22 227 -85
237 -85 5 0 73 -25 151 -56 78 -31 171 -67 207 -81 36 -14 90 -37 120 -50 30
-14 82 -36 115 -48 33 -13 83 -34 110 -48 28 -13 66 -31 85 -40 161 -70 225
-101 379 -180 163 -83 222 -116 357 -200 150 -94 255 -206 333 -358 33 -64 65
-134 70 -155 5 -22 19 -75 31 -119 42 -158 83 -397 95 -555 3 -41 10 -104 16
-140 8 -59 43 -409 69 -695 37 -416 62 -1036 67 -1720 7 -891 -18 -1431 -78
-1713 -46 -211 -160 -497 -252 -630 -18 -26 -39 -59 -46 -74 -22 -43 -160
-196 -262 -290 -130 -120 -302 -245 -461 -334 -196 -112 -560 -288 -763 -369
-38 -16 -75 -32 -80 -36 -15 -11 -274 -111 -435 -169 -74 -26 -160 -57 -190
-68 -96 -35 -442 -144 -530 -167 -47 -12 -168 -45 -270 -73 -258 -71 -435
-116 -575 -147 -285 -62 -668 -175 -860 -253 -65 -26 -121 -77 -141 -127 -29
-77 -13 -155 123 -595 19 -63 55 -180 78 -260 56 -189 102 -337 185 -595 99
-309 111 -426 55 -541 -42 -86 -156 -167 -332 -238 -209 -84 -257 -63 -456
194 -143 186 -247 313 -331 409 -148 168 -194 217 -396 420 -214 216 -336 323
-412 362 l-40 21 -33 -24 c-18 -13 -93 -81 -166 -153 -173 -168 -234 -215
-345 -270 -131 -65 -194 -79 -354 -79 -150 0 -226 13 -316 54 -157 71 -138
161 65 297 141 94 381 223 415 223 8 0 17 4 20 8 3 5 54 28 113 51 59 24 133
53 163 65 30 13 102 38 158 56 116 38 103 23 153 170 17 47 33 92 36 100 15
36 43 113 81 220 23 63 64 175 92 249 27 73 50 139 50 146 0 7 -26 20 -58 29
-275 77 -485 341 -595 746 -23 87 -76 409 -93 567 -6 57 -5 63 19 87 35 35
102 35 176 1 54 -25 168 -114 185 -144 5 -8 28 -39 51 -67 125 -153 258 -435
390 -827 55 -162 91 -231 129 -243 64 -21 275 25 473 102 62 24 141 55 176 68
84 32 470 221 581 285 49 28 91 51 94 51 13 0 564 363 654 432 32 24 117 88
190 143 134 101 438 392 438 419 0 8 4 16 9 18 20 7 132 191 185 303 51 107
112 291 160 480 17 67 81 417 121 659 14 87 30 231 35 320 5 88 14 229 20 311
38 566 34 1778 -10 2690 -5 110 -12 277 -15 370 -3 94 -8 188 -10 210 -2 22
-9 121 -15 220 -18 308 -80 1036 -100 1178 -13 89 -27 120 -93 208 -67 89
-130 157 -216 229 -35 30 -75 65 -89 77 -38 35 -220 120 -293 137 -200 48
-394 -12 -587 -183 -35 -31 -77 -74 -94 -96 l-30 -40 7 45 c54 360 242 656
490 776 130 62 253 79 360 50z"/>
<path d="M12389 26076 c-84 -29 -129 -87 -129 -165 0 -155 180 -235 300 -135
76 65 80 193 6 256 -54 47 -121 63 -177 44z m129 -46 c68 -41 92 -132 53 -196
-21 -34 -93 -74 -132 -74 -42 1 -108 37 -129 72 -24 40 -26 107 -5 148 33 63
147 90 213 50z"/>
<path d="M13025 25582 c-51 -25 -69 -45 -90 -107 -15 -42 -16 -57 -6 -93 26
-95 127 -157 217 -132 117 33 174 161 115 263 -42 73 -157 106 -236 69z m139
-26 c42 -17 84 -71 86 -111 4 -66 0 -79 -45 -122 -40 -38 -51 -43 -91 -43 -51
0 -117 29 -138 63 -28 42 -29 98 -4 147 37 72 114 99 192 66z"/>
<path d="M12409 25241 c-65 -20 -98 -49 -124 -110 -31 -70 -13 -145 48 -198
71 -62 151 -67 224 -14 95 69 101 217 12 283 -57 42 -107 54 -160 39z m128
-51 c44 -26 63 -68 63 -136 0 -52 -3 -59 -35 -90 -69 -65 -154 -64 -220 1 -61
62 -57 155 10 214 31 27 43 31 93 31 39 0 67 -6 89 -20z"/>
<path d="M8975 18421 c-47 -20 -81 -95 -66 -147 15 -53 34 -73 83 -90 44 -14
50 -14 90 4 56 25 70 43 76 101 5 58 -16 104 -58 126 -31 16 -92 19 -125 6z
m126 -50 c88 -88 -35 -226 -129 -146 -74 62 -34 174 61 175 29 0 46 -7 68 -29z"/>
<path d="M11260 24211 c0 -5 7 -12 16 -15 22 -9 24 -8 18 9 -7 16 -34 21 -34
6z"/>
<path d="M13721 19019 c-85 -14 -158 -72 -428 -339 -136 -135 -281 -274 -321
-310 -40 -36 -95 -85 -121 -110 -27 -25 -86 -76 -131 -115 -46 -38 -104 -88
-129 -111 -25 -22 -93 -78 -151 -125 -139 -112 -148 -119 -189 -155 -20 -17
-43 -35 -52 -40 -9 -5 -36 -26 -60 -47 -24 -21 -92 -76 -150 -122 -255 -203
-347 -348 -357 -560 -5 -129 30 -294 101 -470 55 -137 86 -203 214 -463 74
-151 133 -276 130 -278 -2 -3 -35 -13 -73 -24 -192 -53 -355 -161 -489 -323
-22 -27 -51 -67 -63 -90 -13 -23 -31 -55 -41 -72 -55 -96 -106 -286 -121 -452
-14 -150 1 -319 32 -358 59 -75 315 -73 477 3 49 22 121 84 161 137 35 46 59
83 82 125 14 25 39 70 55 100 42 76 125 285 184 464 71 214 83 236 150 264
108 45 381 15 679 -76 309 -94 891 -333 1340 -550 229 -110 729 -360 815 -407
33 -18 94 -51 135 -72 428 -224 790 -562 1029 -962 168 -279 338 -686 430
-1026 82 -300 113 -430 151 -620 53 -264 56 -278 115 -675 32 -211 72 -540 80
-650 3 -47 10 -123 15 -170 6 -47 14 -139 20 -205 5 -66 14 -176 19 -245 58
-705 74 -1294 68 -2445 -8 -1339 -12 -1399 -124 -1742 -57 -176 -58 -179 -58
-298 0 -109 3 -130 33 -225 76 -238 238 -471 457 -655 241 -202 715 -367 1173
-406 193 -17 323 6 353 62 55 104 -169 314 -668 627 -206 128 -494 290 -741
414 -85 43 -137 75 -130 79 7 4 67 21 133 39 66 17 176 47 245 66 69 20 168
47 220 60 362 94 1264 394 1585 527 33 14 112 46 175 72 209 85 310 131 480
214 190 94 394 268 498 426 54 82 126 250 137 320 3 22 10 65 15 95 30 170 76
567 95 805 46 599 66 2454 34 3290 -23 601 -41 817 -100 1235 -56 396 -131
700 -237 966 -46 114 -148 321 -185 374 -13 19 -45 67 -72 105 -106 153 -287
337 -471 477 -65 50 -270 188 -279 188 -3 0 -40 22 -83 48 -62 39 -382 202
-396 202 -2 0 -44 18 -93 40 -114 53 -116 54 -198 85 -38 15 -92 36 -120 47
-74 29 -294 105 -420 145 -272 87 -426 133 -505 153 -47 12 -137 37 -200 55
-63 19 -146 41 -185 50 -38 9 -135 34 -215 56 -80 21 -188 48 -240 60 -52 12
-131 30 -175 40 -192 45 -319 72 -440 94 -71 13 -215 39 -320 59 -104 19 -280
49 -390 66 -110 18 -249 40 -310 51 -60 10 -186 30 -280 44 -241 35 -632 104
-805 141 -121 26 -368 103 -418 129 -96 50 -112 76 -112 177 0 80 23 197 64
328 13 41 31 102 41 135 10 33 41 134 71 225 65 203 137 437 157 510 8 30 31
109 51 175 20 66 47 167 62 225 14 58 41 166 59 240 19 74 39 162 45 196 13
79 14 249 0 294 -15 52 -78 138 -124 169 -137 94 -512 234 -614 230 -15 -1
-51 -5 -81 -10z m174 -34 c87 -20 391 -141 450 -178 27 -18 58 -37 70 -42 27
-14 83 -100 96 -150 16 -59 11 -208 -10 -310 -43 -204 -65 -297 -103 -430 -22
-77 -52 -185 -68 -240 -41 -148 -129 -440 -156 -516 -47 -137 -175 -569 -194
-660 -24 -112 -26 -213 -5 -262 29 -71 121 -118 365 -189 106 -30 626 -132
785 -153 28 -3 158 -24 290 -46 132 -22 312 -50 400 -64 175 -26 422 -68 526
-90 37 -8 113 -21 170 -30 183 -27 507 -101 1034 -234 232 -59 573 -153 765
-211 398 -119 728 -239 1080 -393 170 -74 411 -202 555 -296 327 -212 553
-426 725 -686 56 -84 162 -291 198 -385 83 -220 109 -301 136 -420 8 -36 28
-128 45 -205 80 -359 133 -886 161 -1575 15 -377 21 -1530 10 -2130 -14 -824
-38 -1199 -120 -1840 -40 -311 -112 -486 -273 -660 -71 -76 -184 -169 -272
-222 -119 -72 -545 -265 -755 -343 -41 -15 -93 -35 -115 -45 -71 -30 -117 -47
-290 -108 -261 -93 -793 -267 -895 -292 -25 -6 -103 -29 -175 -50 -71 -22
-197 -57 -280 -79 -541 -143 -515 -135 -494 -156 8 -7 104 -59 214 -116 110
-56 230 -119 267 -140 36 -22 69 -39 72 -39 7 0 198 -112 304 -179 41 -25 86
-53 102 -61 16 -8 52 -32 82 -53 29 -21 87 -60 128 -87 249 -166 425 -336 418
-404 -3 -27 -9 -33 -53 -49 -98 -35 -476 -6 -695 53 -56 15 -261 77 -315 95
-85 29 -262 121 -353 184 -99 69 -230 198 -319 317 -154 206 -241 440 -229
619 6 86 24 167 60 265 82 220 94 309 111 802 14 400 21 1826 10 2058 -2 58
-9 245 -15 415 -6 171 -15 380 -20 465 -5 85 -12 202 -15 260 -12 210 -88
1014 -120 1265 -14 108 -37 258 -65 430 -5 33 -19 119 -30 190 -11 72 -27 157
-35 190 -8 33 -35 154 -61 269 -49 225 -151 584 -208 737 -20 51 -36 98 -36
103 0 21 -164 383 -219 483 -180 329 -410 605 -684 825 -94 76 -336 232 -447
288 -36 18 -108 55 -160 83 -281 148 -970 484 -1080 527 -19 7 -39 17 -45 21
-33 23 -585 249 -729 299 -45 15 -119 41 -166 58 -80 28 -276 83 -365 103
-167 37 -367 40 -446 6 -61 -25 -101 -97 -155 -282 -9 -33 -41 -122 -71 -198
-140 -361 -260 -543 -409 -620 -87 -45 -293 -59 -389 -26 -38 13 -41 17 -57
79 -19 76 -22 205 -7 317 65 485 317 782 757 893 23 6 42 15 42 20 0 6 -20 49
-44 97 -24 49 -45 93 -47 98 -2 6 -22 44 -43 85 -22 41 -59 116 -81 165 -23
50 -56 119 -72 155 -101 214 -161 410 -170 552 -11 159 23 266 122 397 55 72
140 149 312 281 32 25 60 47 63 51 3 3 50 41 104 85 55 43 121 97 147 119 156
130 205 172 220 185 8 8 53 47 99 85 69 57 250 220 346 310 12 11 129 126 260
256 137 135 260 247 289 264 96 55 164 66 270 40z"/>
<path d="M12629 17311 c-130 -42 -151 -188 -37 -255 53 -31 106 -33 163 -7 48
22 68 44 85 93 11 30 11 42 -1 74 -28 73 -133 120 -210 95z m155 -66 c57 -53
40 -127 -38 -165 -60 -29 -113 -21 -161 25 -46 42 -48 90 -7 136 48 53 151 55
206 4z"/>
<path d="M5976 16773 c-1 -1 -116 -3 -256 -4 -234 -2 -317 -5 -635 -24 -213
-12 -536 -41 -800 -70 -274 -31 -776 -125 -990 -185 -60 -17 -132 -37 -160
-44 -85 -22 -375 -132 -478 -180 -53 -25 -99 -46 -102 -46 -6 0 -123 -71 -210
-128 -213 -139 -370 -312 -460 -506 -67 -143 -85 -230 -85 -416 -1 -223 18
-312 102 -489 73 -154 272 -379 413 -466 17 -11 46 -31 65 -46 19 -14 71 -46
115 -69 44 -23 107 -57 140 -75 170 -92 522 -211 860 -290 265 -62 462 -94
860 -140 121 -14 237 -27 258 -30 20 -2 124 -11 230 -19 819 -64 2377 -52
3267 24 63 6 259 21 435 35 512 40 548 44 555 55 7 11 4 609 -3 616 -2 2 -55
-5 -118 -15 -63 -11 -152 -25 -199 -31 -47 -6 -132 -18 -190 -25 -461 -62
-716 -88 -1060 -110 -593 -38 -1120 -27 -1550 31 -221 30 -517 103 -673 165
-225 90 -344 165 -478 301 -109 110 -158 192 -205 343 -25 80 -28 105 -28 230
0 130 2 146 31 230 17 50 47 118 67 153 58 103 110 158 269 288 9 8 21 14 25
14 4 0 24 11 43 25 99 67 368 173 519 205 25 5 87 19 138 30 343 73 670 101
1187 101 447 0 906 -26 1310 -76 66 -8 215 -26 330 -40 116 -14 242 -30 280
-36 122 -18 259 -40 283 -46 l22 -5 0 306 c0 284 -1 306 -17 307 -10 1 -27 3
-38 4 -69 9 -446 45 -525 50 -52 3 -210 15 -350 25 -140 11 -347 24 -460 30
-113 5 -236 12 -275 15 -220 14 -1448 38 -1459 28z m1019 -43 c105 -5 262 -11
350 -15 242 -9 731 -37 980 -55 239 -18 645 -55 713 -66 l32 -5 0 -269 c0
-149 -4 -270 -9 -270 -4 0 -32 5 -62 10 -30 6 -139 22 -244 35 -732 96 -789
102 -1290 130 -403 23 -1098 18 -1280 -10 -16 -2 -64 -7 -105 -10 -173 -13
-398 -57 -663 -129 -66 -18 -258 -95 -329 -131 -362 -188 -550 -492 -524 -850
9 -116 28 -190 77 -294 71 -152 164 -257 338 -380 40 -29 92 -61 115 -71 22
-9 73 -32 111 -50 105 -49 177 -75 320 -113 233 -63 244 -65 610 -111 645 -82
1728 -24 2819 150 49 8 95 14 103 14 10 0 13 -54 13 -279 l0 -280 -52 -5
c-114 -13 -272 -27 -473 -41 -115 -8 -300 -22 -410 -30 -613 -46 -1079 -64
-1775 -69 -930 -7 -1459 21 -2220 115 -390 48 -950 182 -1249 299 -454 177
-778 416 -934 690 -71 124 -136 340 -137 453 l0 47 513 0 c947 1 978 2 954 26
-2 3 -334 5 -737 4 l-733 0 7 78 c8 97 27 171 73 287 120 300 395 539 847 736
250 110 768 255 1066 299 30 5 109 18 175 29 336 58 890 109 1400 130 246 10
1364 11 1610 1z"/>
<path d="M11766 14065 c-93 -18 -138 -41 -134 -70 7 -44 135 -86 428 -140 80
-15 210 -39 290 -55 80 -16 174 -33 210 -39 162 -27 232 -43 560 -123 220 -54
413 -133 484 -198 46 -43 58 -78 40 -125 -10 -26 -136 -83 -241 -110 -141 -35
-471 -80 -773 -105 -198 -16 -496 -39 -605 -46 -201 -13 -325 -43 -325 -79 0
-20 32 -50 77 -73 96 -48 391 -79 958 -102 589 -24 913 -55 1081 -105 67 -20
109 -57 94 -84 -13 -25 -148 -91 -255 -125 -159 -51 -342 -106 -450 -135 -163
-44 -424 -137 -467 -167 -44 -31 -50 -66 -17 -95 68 -59 275 -61 869 -9 209
18 512 24 615 11 193 -23 295 -77 295 -155 0 -59 -52 -113 -193 -201 -148 -91
-154 -96 -166 -126 -15 -42 11 -76 69 -88 71 -15 108 -14 320 10 102 12 273
23 380 26 169 4 210 2 305 -16 117 -22 226 -67 333 -138 122 -81 295 -282 371
-431 66 -129 117 -309 132 -462 5 -58 12 -112 15 -121 10 -36 45 -261 59 -393
24 -220 32 -401 30 -656 -3 -271 -22 -476 -70 -780 -18 -118 -36 -246 -40
-285 -6 -71 -54 -230 -103 -340 -49 -112 -199 -324 -263 -372 -8 -6 -36 -30
-62 -53 -109 -98 -263 -171 -412 -195 -119 -19 -350 -22 -485 -6 -445 53 -510
53 -560 -1 -47 -51 -8 -96 176 -204 159 -93 207 -173 148 -244 -95 -113 -355
-132 -1039 -79 -317 25 -569 29 -641 11 -32 -8 -62 -25 -80 -43 -51 -53 -17
-85 171 -156 49 -19 104 -38 120 -43 17 -5 55 -16 85 -25 30 -9 84 -24 120
-34 481 -137 700 -223 700 -274 -1 -57 -135 -95 -475 -137 -44 -5 -273 -19
-510 -29 -828 -38 -1012 -58 -1160 -121 -80 -34 -84 -89 -6 -110 46 -12 291
-36 503 -50 394 -25 915 -79 1060 -110 111 -23 164 -40 239 -73 176 -78 89
-197 -227 -311 -80 -29 -459 -125 -614 -155 -232 -46 -582 -111 -695 -131
-146 -25 -287 -62 -350 -91 -57 -27 -59 -55 -3 -82 68 -33 154 -41 443 -40
300 0 468 15 786 68 85 14 181 30 214 36 67 10 122 23 335 76 80 20 149 38
155 41 5 3 20 7 33 8 46 5 422 129 542 179 30 12 87 35 125 51 101 40 479 223
587 285 225 127 550 351 683 469 193 172 392 373 470 475 30 39 88 115 130
170 316 414 549 908 695 1472 75 289 101 433 139 778 88 787 -28 1679 -312
2400 -106 270 -345 707 -466 851 -14 17 -45 57 -68 90 -23 32 -53 70 -65 84
-13 14 -48 57 -79 95 -76 93 -270 289 -399 401 -316 274 -608 467 -1010 670
-318 160 -786 329 -1175 424 -115 28 -235 57 -265 65 -30 7 -80 16 -110 20
-30 4 -122 17 -205 30 -321 51 -401 58 -715 61 -238 3 -322 0 -384 -11z m694
-30 c25 -3 137 -17 250 -31 245 -30 392 -55 560 -95 69 -16 163 -38 210 -49
218 -51 718 -220 885 -299 36 -17 67 -31 70 -31 10 0 346 -170 373 -188 15
-10 59 -35 97 -56 39 -21 93 -52 120 -70 28 -18 84 -54 125 -81 82 -53 277
-196 354 -259 208 -174 473 -443 603 -613 102 -132 114 -149 188 -259 314
-471 518 -995 640 -1644 38 -201 83 -673 85 -892 l0 -28 -255 0 c-220 0 -255
-2 -255 -15 0 -13 35 -15 256 -15 l256 0 -7 -157 c-7 -184 -39 -527 -61 -663
-16 -97 -52 -275 -79 -387 -8 -35 -21 -89 -29 -120 -61 -257 -254 -737 -401
-998 -80 -142 -321 -499 -355 -525 -3 -3 -19 -23 -35 -45 -40 -55 -182 -210
-290 -318 -154 -154 -384 -338 -590 -472 -66 -43 -138 -90 -159 -104 -134 -89
-608 -320 -811 -396 -49 -19 -121 -46 -160 -61 -257 -98 -825 -243 -1130 -289
-111 -16 -276 -37 -415 -51 -186 -19 -593 -22 -695 -5 -91 15 -139 31 -128 42
27 27 283 88 583 139 270 46 724 142 899 190 379 104 531 194 531 313 0 89
-163 160 -475 207 -172 26 -359 47 -530 60 -77 6 -189 15 -250 20 -60 5 -166
12 -235 15 -226 11 -460 44 -460 66 0 26 146 70 295 88 198 25 296 32 695 51
463 21 689 35 820 51 273 32 428 99 401 173 -23 62 -251 153 -706 282 -340 96
-506 160 -513 196 -2 9 12 22 35 34 71 34 332 32 823 -8 74 -5 250 -11 390
-11 346 0 440 20 523 112 81 90 36 175 -158 294 -125 77 -175 115 -175 132 0
9 15 25 33 36 29 18 43 20 137 15 58 -3 182 -15 275 -27 194 -25 459 -30 572
-11 327 55 616 291 779 638 57 123 79 196 99 334 9 63 25 160 35 215 58 312
80 570 80 960 0 374 -21 624 -76 930 -8 44 -25 150 -38 235 -26 168 -38 208
-98 345 -106 237 -315 461 -537 574 -108 56 -367 97 -536 86 -105 -6 -326 -30
-435 -45 -93 -14 -230 -12 -260 3 -14 7 -26 22 -28 34 -4 25 4 31 176 140 108
67 123 80 158 129 45 63 36 122 -28 180 -75 66 -187 85 -503 85 -215 -1 -309
-5 -660 -30 -273 -19 -361 -22 -446 -12 -155 18 -180 49 -76 98 34 17 76 35
92 41 61 22 354 112 460 141 207 58 444 139 507 174 85 47 104 70 92 104 -39
113 -347 161 -1229 193 -549 20 -798 48 -927 102 -112 47 -37 69 352 103 96 8
258 19 360 25 338 18 736 70 935 122 240 62 311 166 190 280 -92 86 -306 165
-700 257 -128 30 -277 59 -650 127 -242 44 -542 112 -578 131 -15 7 -25 18
-22 23 8 12 72 29 149 40 64 8 558 5 636 -5z"/>
<path d="M7029 13136 c-2 -2 -182 -6 -399 -10 -372 -5 -794 -23 -1117 -46 -79
-5 -209 -15 -290 -20 -245 -17 -591 -58 -998 -119 -452 -67 -991 -192 -1295
-301 -63 -23 -135 -47 -160 -55 -25 -7 -79 -27 -120 -44 -41 -18 -106 -45
-145 -60 -166 -68 -431 -217 -580 -327 -111 -81 -301 -263 -347 -332 -10 -15
-36 -49 -58 -77 -55 -69 -166 -292 -195 -394 -139 -476 -66 -957 204 -1335 82
-116 243 -285 343 -361 105 -80 185 -138 198 -143 8 -3 33 -17 55 -32 53 -35
273 -148 405 -206 199 -89 557 -204 910 -294 335 -85 1098 -206 1540 -244 415
-36 705 -57 1065 -77 99 -6 540 -12 980 -15 712 -4 1009 0 1500 21 456 20 589
26 760 35 105 6 269 15 365 20 392 21 710 40 800 50 91 9 723 65 900 78 l85 7
3 408 2 407 -32 0 c-18 0 -105 -12 -193 -25 -527 -82 -647 -97 -1290 -164
-1053 -111 -2297 -107 -2985 10 -221 37 -381 70 -487 100 -562 156 -901 353
-1121 651 -51 69 -84 130 -126 233 -42 104 -55 161 -67 302 -10 119 -10 155 4
263 20 146 39 213 100 341 96 204 272 385 510 523 191 112 427 202 757 290
174 46 676 128 865 141 50 3 110 8 135 11 224 23 1061 31 1440 14 532 -23 774
-42 1205 -90 50 -6 153 -17 230 -25 234 -26 465 -55 560 -70 50 -8 145 -23
212 -34 67 -11 159 -24 203 -27 l80 -7 0 406 0 406 -32 5 c-18 3 -91 10 -163
16 -71 6 -206 17 -300 26 -357 30 -949 74 -1150 84 -664 33 -1313 61 -1620 69
-412 12 -1140 23 -1146 17z m1186 -49 c17 -3 134 -8 260 -11 127 -4 327 -11
445 -16 118 -5 287 -12 375 -15 88 -3 192 -7 230 -10 39 -3 149 -9 245 -15
288 -17 485 -30 675 -45 445 -36 641 -52 890 -74 l70 -6 0 -380 c0 -332 -2
-380 -15 -378 -8 1 -145 23 -305 47 -159 25 -321 48 -360 51 -38 4 -119 13
-180 21 -60 8 -191 23 -290 34 -99 11 -193 23 -210 25 -36 6 -488 41 -630 49
-55 4 -176 11 -270 17 -607 38 -1418 24 -1920 -32 -233 -26 -537 -79 -745
-130 -100 -25 -429 -134 -485 -161 -33 -16 -81 -38 -108 -48 -26 -10 -98 -48
-160 -85 -342 -206 -542 -475 -604 -814 -22 -118 -21 -340 1 -456 18 -92 59
-224 81 -260 7 -11 27 -47 45 -80 81 -152 261 -333 444 -447 113 -71 348 -178
509 -233 523 -179 1224 -267 2117 -266 322 0 748 12 910 26 30 3 129 9 220 15
91 6 187 13 214 15 27 3 106 10 175 16 162 13 340 32 626 68 127 16 259 32
295 36 69 7 216 29 473 70 87 14 163 25 168 25 5 0 9 -156 9 -379 l0 -378
-117 -11 c-65 -7 -176 -16 -248 -22 -265 -20 -653 -51 -760 -60 -60 -5 -153
-12 -205 -15 -52 -3 -151 -10 -220 -15 -69 -6 -280 -17 -470 -25 -190 -8 -446
-20 -570 -26 -578 -27 -914 -34 -1730 -34 -611 0 -756 4 -1160 25 -635 33
-1040 68 -1370 115 -58 9 -157 22 -220 30 -216 26 -574 92 -870 159 -226 52
-696 196 -820 253 -30 14 -89 39 -130 55 -78 31 -324 156 -369 187 -14 10 -56
36 -93 58 -94 57 -238 175 -341 279 -169 170 -308 398 -368 604 -40 136 -77
395 -59 414 3 2 454 7 1004 10 549 2 1000 7 1003 10 24 24 -56 26 -1010 26
l-1002 0 6 113 c16 266 116 533 282 752 334 441 912 748 1857 986 174 44 332
77 670 140 113 21 811 111 1000 129 270 25 587 43 1135 65 310 12 1910 14
1980 2z"/>
<path d="M7540 8298 c-3 -3 -171 -8 -375 -12 -937 -17 -1481 -52 -2320 -152
-175 -21 -803 -127 -940 -159 -60 -14 -171 -39 -245 -56 -138 -31 -210 -49
-290 -75 -25 -8 -90 -27 -145 -43 -55 -16 -152 -48 -215 -71 -63 -23 -126 -45
-140 -50 -25 -8 -80 -31 -135 -55 -16 -8 -68 -30 -115 -49 -175 -71 -432 -213
-616 -339 -162 -112 -363 -298 -473 -439 -187 -240 -272 -432 -337 -758 -18
-90 -20 -372 -5 -475 21 -131 54 -270 82 -345 49 -129 143 -304 216 -402 74
-99 215 -257 273 -304 19 -16 38 -34 43 -40 14 -24 208 -167 334 -248 203
-130 585 -305 863 -396 341 -112 717 -211 965 -255 72 -13 191 -36 265 -50
151 -30 236 -43 525 -80 452 -59 636 -79 880 -95 83 -5 245 -16 360 -25 579
-41 1092 -55 1925 -54 382 0 718 2 745 4 28 1 183 6 345 10 162 3 315 8 340
10 25 2 119 7 210 10 148 5 407 17 655 30 50 2 194 9 320 15 253 11 652 34
870 50 77 5 298 21 490 35 552 39 956 72 1015 84 l35 7 3 462 c2 406 0 463
-13 468 -8 4 -79 -4 -158 -16 -78 -12 -205 -30 -282 -40 -77 -11 -187 -26
-245 -35 -236 -35 -494 -67 -635 -80 -82 -7 -231 -23 -330 -34 -1307 -149
-2809 -152 -3615 -6 -47 9 -125 23 -175 31 -242 39 -609 146 -850 246 -89 37
-298 150 -377 205 -240 164 -371 307 -481 525 -112 220 -152 477 -111 719 65
389 272 673 669 914 476 290 1265 473 2265 525 278 14 863 19 1150 10 408 -14
603 -27 1100 -70 124 -10 263 -22 310 -25 115 -9 403 -40 640 -71 270 -35 341
-43 445 -54 50 -6 221 -30 381 -55 161 -25 295 -45 298 -45 3 0 6 214 6 475 0
414 -2 475 -15 475 -8 0 -81 7 -162 15 -139 14 -319 29 -628 55 -71 6 -231 17
-355 25 -124 8 -261 17 -305 20 -778 53 -1636 93 -2470 115 -468 12 -1458 24
-1465 18z m1490 -48 c584 -14 864 -26 1720 -75 234 -13 484 -27 555 -30 175
-8 637 -41 920 -65 427 -37 570 -49 628 -56 l57 -6 0 -440 0 -441 -42 6 c-24
4 -133 20 -243 36 -110 17 -242 35 -293 41 -151 17 -176 20 -202 25 -45 9
-574 74 -650 80 -41 3 -156 15 -255 25 -221 24 -724 65 -980 81 -430 26 -1176
30 -1659 8 -628 -27 -1289 -135 -1699 -278 -197 -69 -240 -87 -382 -157 -360
-177 -599 -389 -740 -656 -52 -98 -108 -277 -124 -393 -35 -246 15 -525 131
-745 195 -367 605 -655 1188 -835 213 -65 241 -73 355 -94 55 -11 120 -24 145
-30 428 -99 1234 -160 1980 -147 579 9 1375 59 1875 116 94 11 274 31 400 45
277 31 370 43 720 94 414 61 470 69 475 64 3 -3 6 -200 8 -439 2 -347 0 -434
-10 -434 -7 0 -78 -7 -157 -15 -214 -22 -594 -53 -861 -70 -129 -8 -296 -20
-370 -25 -129 -10 -315 -21 -860 -55 -135 -8 -416 -21 -625 -30 -209 -8 -416
-17 -460 -19 -44 -3 -179 -8 -300 -12 -121 -3 -330 -10 -465 -14 -260 -8
-1884 -5 -1960 4 -25 2 -130 7 -235 11 -439 13 -1111 60 -1437 100 -21 3 -55
7 -75 10 -21 2 -119 14 -218 25 -315 36 -893 134 -1110 188 -66 17 -165 40
-220 52 -124 27 -354 96 -545 162 -80 27 -165 57 -190 65 -52 17 -58 20 -240
103 -159 72 -317 154 -398 207 -31 21 -64 41 -72 44 -50 21 -281 209 -385 313
-102 102 -255 283 -255 302 0 3 -21 36 -46 75 -41 64 -117 239 -157 364 -24
74 -47 216 -54 333 l-6 102 1046 0 c924 0 1047 2 1047 15 0 13 -123 15 -1045
15 l-1045 0 0 45 c0 161 50 398 112 535 14 30 29 66 33 80 4 14 26 54 48 90
22 36 49 81 60 100 35 61 168 221 252 305 88 88 195 178 285 240 32 22 86 59
120 83 34 23 65 42 69 42 4 0 29 14 57 32 65 42 353 185 429 213 33 13 87 35
120 50 179 80 714 243 990 300 44 9 125 27 180 40 378 87 1065 180 1695 229
107 9 220 18 250 21 229 22 775 43 1275 51 242 4 442 9 445 11 6 6 848 -4
1400 -17z"/>
</g>
</svg>
